<svg id="b949ef52-b6f8-4a89-a652-25b20ded0775" data-name="Layer 1" xmlns="http://www.w3.org/2000/svg" width="865.76" height="682.89" viewBox="0 0 865.76 682.89"><polygon points="93.55 415.74 628.85 415.74 600.9 15.99 65.6 15.99 93.55 415.74" fill="#e1e1e1"/><path d="M513.08,66a1.36,1.36,0,0,0,.74-.22l8.59-5.43a1.38,1.38,0,0,0,.64-1.17,1.36,1.36,0,0,0-.63-1.17l-9-5.9a1.39,1.39,0,0,0-1.52,2.33l7.2,4.71-6.76,4.28a1.39,1.39,0,0,0,.75,2.57Z" fill="#d1d3d4"/><path d="M508.42,60.55h13.24a1.39,1.39,0,0,0,0-2.78H508.42a1.39,1.39,0,0,0,0,2.78Z" fill="#d1d3d4"/><path d="M487.45,66a1.37,1.37,0,0,0,1.16-.63,1.4,1.4,0,0,0-.4-1.93L481,58.72l6.76-4.28a1.39,1.39,0,1,0-1.49-2.35l-8.59,5.44a1.37,1.37,0,0,0-.64,1.16,1.38,1.38,0,0,0,.62,1.18l9,5.89A1.33,1.33,0,0,0,487.45,66Z" fill="#d1d3d4"/><path d="M478.44,60.09h13.24a1.39,1.39,0,0,0,0-2.78H478.44a1.39,1.39,0,1,0,0,2.78Z" fill="#d1d3d4"/><path d="M454.43,68.82A8.18,8.18,0,0,0,462.69,60a9.47,9.47,0,0,0-9.29-8.68,8.18,8.18,0,0,0-8.25,8.87,1.4,1.4,0,0,0,1.48,1.29A1.38,1.38,0,0,0,447.92,60a5.41,5.41,0,0,1,5.48-5.9,6.63,6.63,0,0,1,6.51,6.09A5.39,5.39,0,0,1,454.43,66a1.39,1.39,0,1,0,0,2.78Z" fill="#d1d3d4"/><path d="M446.55,61.6a1.32,1.32,0,0,0,.39-.06l4.48-1.31a1.4,1.4,0,0,0,.94-1.73,1.39,1.39,0,0,0-1.73-.94l-3.46,1-1.62-2.64a1.39,1.39,0,0,0-2.37,1.46l2.18,3.54A1.4,1.4,0,0,0,446.55,61.6Z" fill="#d1d3d4"/><path d="M218.34,63.26A7.37,7.37,0,0,1,216,58.2a6.49,6.49,0,0,1,6.29-6.77,7.4,7.4,0,0,1,7.55,7.06,6.46,6.46,0,0,1-6.29,6.76h-.24A7.35,7.35,0,0,1,218.34,63.26Zm4-9a3.69,3.69,0,0,0-3.61,3.89,4.5,4.5,0,0,0,1.46,3.12h0a4.47,4.47,0,0,0,3.2,1.24,3.69,3.69,0,0,0,3.61-3.89,4.63,4.63,0,0,0-4.53-4.37Z" fill="#d1d3d4"/><path d="M214.46,68.82a1.39,1.39,0,0,0,1-.44l4.83-5.19a1.39,1.39,0,1,0-2-1.9l-4.83,5.19a1.38,1.38,0,0,0,.07,2A1.35,1.35,0,0,0,214.46,68.82Z" fill="#d1d3d4"/><polygon points="67.17 38.47 602.47 38.47 600.9 15.99 65.6 15.99 67.17 38.47" fill="#ff4500"/><path d="M119,27.23A7.32,7.32,0,0,0,126.21,34a6.19,6.19,0,0,0,6.26-6.72,7.33,7.33,0,0,0-7.2-6.73A6.19,6.19,0,0,0,119,27.23Z" fill="#fff"/><path d="M98.4,27.23A7.32,7.32,0,0,0,105.59,34a6.19,6.19,0,0,0,6.26-6.72,7.33,7.33,0,0,0-7.2-6.73A6.19,6.19,0,0,0,98.4,27.23Z" fill="#fff"/><path d="M77.78,27.23A7.32,7.32,0,0,0,85,34a6.19,6.19,0,0,0,6.26-6.72A7.33,7.33,0,0,0,84,20.5,6.19,6.19,0,0,0,77.78,27.23Z" fill="#fff"/><line x1="561.43" y1="51.25" x2="578.44" y2="51.51" fill="#d1d3d4"/><line x1="562.09" y1="58.9" x2="579.11" y2="59.16" fill="#d1d3d4"/><line x1="562.76" y1="66.55" x2="579.78" y2="66.81" fill="#d1d3d4"/><path d="M253.87,67.43H417A7.79,7.79,0,0,0,424.88,59h0a9.22,9.22,0,0,0-9.06-8.48H252.68A7.8,7.8,0,0,0,244.8,59h0A9.23,9.23,0,0,0,253.87,67.43Z" fill="#fff"/><polygon points="342.85 92.44 350.7 92.44 349.93 81.49 342.08 81.49 342.85 92.44" fill="#fff"/><polygon points="339.03 92.36 347.31 100.1 354.51 92.36 339.03 92.36" fill="#fff"/><polygon points="331.1 105.55 364.28 105.55 363.36 92.35 359.18 92.35 359.82 101.38 334.98 101.38 334.34 92.27 330.17 92.27 331.1 105.55" fill="#fff"/><g opacity="0.5"><polygon points="342.85 92.44 350.7 92.44 349.93 81.49 342.08 81.49 342.85 92.44" fill="#fff"/><polygon points="339.03 92.36 347.31 100.1 354.51 92.36 339.03 92.36" fill="#fff"/><polygon points="331.1 105.55 364.28 105.55 363.36 92.35 359.18 92.35 359.82 101.38 334.98 101.38 334.34 92.27 330.17 92.27 331.1 105.55" fill="#fff"/></g><path d="M272.2,176.13H432.68a16.42,16.42,0,0,0,16.59-17.83l-1.19-17A19.42,19.42,0,0,0,429,123.45H268.51a16.4,16.4,0,0,0-16.58,17.83l1.19,17A19.43,19.43,0,0,0,272.2,176.13Z" fill="#ff4500"/><path d="M306.69,149.52c-.37-3.51,2.06-6.05,5.67-6.05a6.66,6.66,0,0,1,4.86,2L316,146.76a4.63,4.63,0,0,0-3.29-1.38,3.56,3.56,0,0,0-3.76,4.14,4.54,4.54,0,0,0,4.63,4.14,3.67,3.67,0,0,0,3-1.39l1.55,1.34a5.36,5.36,0,0,1-4.47,2A6.81,6.81,0,0,1,306.69,149.52Z" fill="#fff"/><path d="M318.86,142.93H321l1.31,12.48h-2.1Z" fill="#fff"/><path d="M323.51,143.68a1.14,1.14,0,0,1,1.21-1.26,1.41,1.41,0,0,1,1.47,1.21A1.14,1.14,0,0,1,325,145,1.47,1.47,0,0,1,323.51,143.68Zm.58,2.75h2.1l.94,9H325Z" fill="#fff"/><path d="M328.68,150.92c-.29-2.69,1.53-4.59,4.37-4.59a4.54,4.54,0,0,1,4.05,2.08l-1.51.94a2.89,2.89,0,0,0-2.37-1.24,2.34,2.34,0,0,0-2.43,2.81,3,3,0,0,0,3,2.81,2.24,2.24,0,0,0,2.1-1.25l1.72,1a3.63,3.63,0,0,1-3.61,2.1A5.17,5.17,0,0,1,328.68,150.92Z" fill="#fff"/><path d="M342.83,151.56,341.42,153l.25,2.37h-2.1l-1.31-12.48h2.1l.79,7.54,3.93-4h2.52l-3.35,3.77,4.65,5.21h-2.56Z" fill="#fff"/><path d="M364.32,143.63l1.23,11.78h-2.18l-.53-5h-6.08l.53,5H355.1l-1.23-11.78h2.18l.51,4.87h6.08l-.51-4.87Z" fill="#fff"/><path d="M376.52,151.59h-7a3.09,3.09,0,0,0,3.13,2.16,2.86,2.86,0,0,0,2.33-1l1.27,1.3a4.13,4.13,0,0,1-3.46,1.46,5.17,5.17,0,0,1-5.44-4.61,4,4,0,0,1,4.15-4.59,5,5,0,0,1,5,4.64C376.5,151.14,376.51,151.39,376.52,151.59Zm-7.2-1.39h5.09a2.78,2.78,0,0,0-2.77-2.19A2.18,2.18,0,0,0,369.32,150.2Z" fill="#fff"/><path d="M383.21,146.33l.21,2a2.26,2.26,0,0,0-.49-.05c-1.6,0-2.51.94-2.31,2.77l.46,4.36H379l-.94-9h2l.14,1.31A3.16,3.16,0,0,1,383.21,146.33Z" fill="#fff"/><path d="M393.87,151.59h-7a3.09,3.09,0,0,0,3.13,2.16,2.88,2.88,0,0,0,2.33-1l1.27,1.3a4.13,4.13,0,0,1-3.46,1.46,5.17,5.17,0,0,1-5.44-4.61,4,4,0,0,1,4.15-4.59,5,5,0,0,1,5,4.64C393.85,151.14,393.86,151.39,393.87,151.59Zm-7.21-1.39h5.09A2.77,2.77,0,0,0,389,148,2.19,2.19,0,0,0,386.66,150.2Z" fill="#fff"/><path d="M455,195.46,437.8,187s-4.52-5.21.23-7.43a6.53,6.53,0,0,1,5.85.31l6.37,3.46-28.39-28.39a4.13,4.13,0,0,1,0-5.85h0a4.14,4.14,0,0,1,5.86,0l19.84,19.84-9-9,3-3a3.71,3.71,0,0,1,5.25,0l7.63,7.63-8.06-8.06,3.48-3.48a3.71,3.71,0,0,1,5.25,0l6.65,6.65-6.35-6.34,2-2a3.71,3.71,0,0,1,5.25,0l16,16a13.13,13.13,0,0,1,2,2.5l2.67,4.45a11.44,11.44,0,0,1,1.63,5.89h0l-16.23,16.23-7.19.42A13,13,0,0,1,455,195.46Z" fill="#fff"/><line x1="409.87" y1="137.06" x2="415.73" y2="142.92" fill="none" stroke="#fff" stroke-linecap="round" stroke-linejoin="round" stroke-width="2"/><line x1="403.49" y1="152.43" x2="411.77" y2="152.43" fill="none" stroke="#fff" stroke-linecap="round" stroke-linejoin="round" stroke-width="2"/><line x1="434.74" y1="142.93" x2="440.62" y2="137.06" fill="none" stroke="#fff" stroke-linecap="round" stroke-linejoin="round" stroke-width="2"/><line x1="409.87" y1="167.81" x2="415.71" y2="161.97" fill="none" stroke="#fff" stroke-linecap="round" stroke-linejoin="round" stroke-width="2"/><line x1="425.23" y1="138.99" x2="425.23" y2="130.69" fill="none" stroke="#fff" stroke-linecap="round" stroke-linejoin="round" stroke-width="2"/><polygon points="286.37 350.49 454.49 350.49 441.44 201.26 273.31 201.26 286.37 350.49" fill="#d1d3d4"/><polygon points="288.15 297.56 443.25 297.56 435.45 208.39 280.35 208.39 288.15 297.56" fill="#e1e1e1"/><polygon points="394.61 313.46 435.12 313.46 434.27 303.78 393.76 303.78 394.61 313.46" fill="#e1e1e1"/><polygon points="346.93 313.46 387.44 313.46 386.6 303.78 346.09 303.78 346.93 313.46" fill="#e1e1e1"/><polygon points="299.26 313.46 339.77 313.46 338.92 303.78 298.41 303.78 299.26 313.46" fill="#e1e1e1"/><polygon points="417.78 327.37 424.02 327.37 423.54 321.83 417.29 321.83 417.78 327.37" fill="#e1e1e1"/><polygon points="390.96 327.37 414.14 327.37 413.66 321.83 390.48 321.83 390.96 327.37" fill="#e1e1e1"/><polygon points="363.68 327.37 386.86 327.37 386.38 321.83 363.19 321.83 363.68 327.37" fill="#e1e1e1"/><polygon points="312.83 327.37 324.42 327.37 323.93 321.83 312.34 321.83 312.83 327.37" fill="#e1e1e1"/><polygon points="327.81 327.37 359.44 327.37 358.96 321.83 327.33 321.83 327.81 327.37" fill="#e1e1e1"/><polygon points="342.35 336.82 319.17 336.82 318.68 331.28 341.87 331.28 342.35 336.82" fill="#e1e1e1"/><polygon points="369.63 336.82 346.45 336.82 345.96 331.28 369.15 331.28 369.63 336.82" fill="#e1e1e1"/><polygon points="420.48 336.82 408.89 336.82 408.41 331.28 420 331.28 420.48 336.82" fill="#e1e1e1"/><polygon points="405.5 336.82 373.87 336.82 373.38 331.28 405.01 331.28 405.5 336.82" fill="#e1e1e1"/><polygon points="443.26 297.74 388.08 248.79 365.81 297.74 443.26 297.74" fill="#fff"/><polygon points="388.84 297.74 317.1 234.11 288.16 297.74 388.84 297.74" fill="#fff"/><path d="M348.25,234.75A13.08,13.08,0,0,0,361,246.5a10.6,10.6,0,0,0,10.72-11.75A13.08,13.08,0,0,0,359,223,10.59,10.59,0,0,0,348.25,234.75Z" fill="#fff"/><path d="M758.17,602.42l-1.61.2c-.1-.81-9.83-82.29,10.25-148.88,20-66.18,6.22-108.34,6.08-108.76l1.53-.52c.14.42,14.05,43.08-6.06,109.75C748.38,520.46,758.07,601.61,758.17,602.42Z" fill="#e1e1e1"/><path d="M775.75,354.05a25.25,25.25,0,0,0-13.53-8.34l.37-1.57A26.82,26.82,0,0,1,777,353Z" fill="#e1e1e1"/><rect x="778.05" y="362.02" width="5.31" height="1.62" transform="translate(-77.49 431.02) rotate(-29.47)" fill="#e1e1e1"/><path d="M774,398.36a38.41,38.41,0,0,0-20.79-20.17l.6-1.51a40.09,40.09,0,0,1,21.67,21Z" fill="#e1e1e1"/><path d="M769.68,449.26l-1.62,0a22.24,22.24,0,0,0-8.37-17l1-1.27A23.91,23.91,0,0,1,769.68,449.26Z" fill="#e1e1e1"/><path d="M766.07,462.28l-1.51-.59a16.24,16.24,0,0,1,9.2-9.08l.57,1.51A14.6,14.6,0,0,0,766.07,462.28Z" fill="#e1e1e1"/><path d="M755.59,544.86l-1.24-1c2-2.37,3.45-11.4,4.25-16.26.19-1.16.35-2.15.49-2.86l1.59.3c-.13.71-.29,1.68-.48,2.83C759,535.08,757.66,542.36,755.59,544.86Z" fill="#e1e1e1"/><path d="M754.66,570.8a15.94,15.94,0,0,0-15.44-10.66l-.07-1.61a17.57,17.57,0,0,1,17,11.76Z" fill="#e1e1e1"/><rect x="753.38" y="593.79" width="17.1" height="1.62" transform="translate(-189.14 766.51) rotate(-48.21)" fill="#e1e1e1"/><path d="M775.07,504.56c2.58,8.35-15.43,24.26-15.43,24.26s-23.85-3-26.43-11.34,3.46-22,15-25.6S772.49,496.2,775.07,504.56Z" fill="#e1e1e1"/><path d="M795.05,403.13c-2.28,8.87-19.34,15.18-19.34,15.18s-11.89-13.76-9.6-22.63,11.71-18.66,19.7-16.6S797.34,394.25,795.05,403.13Z" fill="#e1e1e1"/><path d="M726.61,535.77c10.71,4.17,17.28,23.11,17.28,23.11s-17.65,9.52-28.36,5.35-22-15.92-19-23.78S715.9,531.6,726.61,535.77Z" fill="#e1e1e1"/><path d="M750.09,431.56c2.27,1.68,4.6,3.39,7.32,4.13s6,.29,7.81-1.84c2.29-2.64,1.68-6.73.23-9.91-2.86-6.3-13.41-17-21.52-13.93C732.23,414.44,744.88,427.69,750.09,431.56Z" fill="#e1e1e1"/><path d="M774.05,447.63c-1.54,1.9-3.17,4.3-2.33,6.59.75,2,3.25,3,5.39,2.65A14.18,14.18,0,0,0,782.9,454c4.13-2.87,12.6-8.89,7.2-14.52C784.48,433.67,777.28,443.62,774.05,447.63Z" fill="#e1e1e1"/><path d="M739.48,367.51c-1.76.2-3.56,1.38-3.86,3.13-.35,2.05,1.35,3.85,3,5.12,4.1,3.16,16.43,11.69,19.18,3.46C760.4,371.44,744.93,366.91,739.48,367.51Z" fill="#e1e1e1"/><path d="M762.21,340.44c-2.54.24-5.08-.68-7.63-.52s-5.38,2.21-4.81,4.7c.52,2.31,3.38,3.08,5.74,3.22a45.33,45.33,0,0,0,12-.83,3.61,3.61,0,0,0,2.44-1.23c1-1.52-.61-3.55-2.36-4.09s-3.74-.36-5.33-1.27Z" fill="#e1e1e1"/><path d="M787.07,357.94c2.55.07,5-1,7.58-1s5.51,1.85,5.11,4.38c-.37,2.33-3.17,3.29-5.52,3.59a45.86,45.86,0,0,1-12,0,3.71,3.71,0,0,1-2.51-1.07c-1.13-1.45.37-3.59,2.08-4.24s3.71-.61,5.24-1.62Z" fill="#e1e1e1"/><path d="M784.55,546.14a3.55,3.55,0,0,1,2.17-1.08,2.46,2.46,0,0,1,2.17,2.12,6.75,6.75,0,0,1-.41,3.22c-1.73,5.8-21.17,47.75-25.64,40.22-2.64-4.46,3.85-19.21,5.77-23.38A60.89,60.89,0,0,1,784.55,546.14Z" fill="#e1e1e1"/><path d="M772.93,342c1.54-3.46,3.21-7.08,6.27-9.31s8-2.4,10.21.66c2.5,3.43,0,8.63-3.82,10.46s-8.31,1.28-12.5.69c0-.63-.07-1.25-.11-1.87Z" fill="#e1e1e1"/><g opacity="0.6"><path d="M758.17,602.42l-1.61.2c-.1-.81-9.83-82.29,10.25-148.88,20-66.18,6.22-108.34,6.08-108.76l1.53-.52c.14.42,14.05,43.08-6.06,109.75C748.38,520.46,758.07,601.61,758.17,602.42Z" fill="#e1e1e1"/><path d="M775.75,354.05a25.25,25.25,0,0,0-13.53-8.34l.37-1.57A26.82,26.82,0,0,1,777,353Z" fill="#e1e1e1"/><rect x="778.05" y="362.02" width="5.31" height="1.62" transform="translate(-77.49 431.02) rotate(-29.47)" fill="#e1e1e1"/><path d="M774,398.36a38.41,38.41,0,0,0-20.79-20.17l.6-1.51a40.09,40.09,0,0,1,21.67,21Z" fill="#e1e1e1"/><path d="M769.68,449.26l-1.62,0a22.24,22.24,0,0,0-8.37-17l1-1.27A23.91,23.91,0,0,1,769.68,449.26Z" fill="#e1e1e1"/><path d="M766.07,462.28l-1.51-.59a16.24,16.24,0,0,1,9.2-9.08l.57,1.51A14.6,14.6,0,0,0,766.07,462.28Z" fill="#e1e1e1"/><path d="M755.59,544.86l-1.24-1c2-2.37,3.45-11.4,4.25-16.26.19-1.16.35-2.15.49-2.86l1.59.3c-.13.71-.29,1.68-.48,2.83C759,535.08,757.66,542.36,755.59,544.86Z" fill="#e1e1e1"/><path d="M754.66,570.8a15.94,15.94,0,0,0-15.44-10.66l-.07-1.61a17.57,17.57,0,0,1,17,11.76Z" fill="#e1e1e1"/><rect x="753.38" y="593.79" width="17.1" height="1.62" transform="translate(-189.14 766.51) rotate(-48.21)" fill="#e1e1e1"/><path d="M772.93,342c1.54-3.46,3.21-7.08,6.27-9.31s8-2.4,10.21.66c2.5,3.43,0,8.63-3.82,10.46s-8.31,1.28-12.5.69c0-.63-.07-1.25-.11-1.87Z" fill="#fff"/></g><path d="M786.1,657.45h0a135.57,135.57,0,0,1-62.07,0h0l-9.64-71.25h81.35Z" fill="#e1e1e1"/><path d="M562.54,250.31c-4.21,13.27.41,45.74-12.81,54.18-11.75,7.49-17.85,19.3-17.44,33.22,8.61-11.9,22.93-18.68,37.41-21.12s29.33-1,43.92.72c6.88.81,39,11,37.25,17.71,10.34-15.39-1.44-84.63-6.1-102.57-1.4-5.39,1.32-13-4-14.64-12.32-3.76-39-11.32-66,6C564,230.82,565.25,241.81,562.54,250.31Z" fill="#ff4500"/><g opacity="0.5"><path d="M562.54,250.31c-4.21,13.27.41,45.74-12.81,54.18-11.75,7.49-17.85,19.3-17.44,33.22,8.61-11.9,22.93-18.68,37.41-21.12s29.33-1,43.92.72c6.88.81,39,11,37.25,17.71,10.34-15.39-1.44-84.63-6.1-102.57-1.4-5.39,1.32-13-4-14.64-12.32-3.76-39-11.32-66,6C564,230.82,565.25,241.81,562.54,250.31Z" fill="#ff4500"/></g><path d="M497.57,228.71l-7.11-18.07-8.72,13.55s4.59,9.19,10.19,9.53Z" fill="#f6b297"/><path d="M478.27,206.62l-2.71,3.07a5.1,5.1,0,0,0-.16,6.56l6.34,7.93,8.72-13.54-5-4.44A5.09,5.09,0,0,0,478.27,206.62Z" fill="#f6b297"/><path d="M484.07,222.07h0l-2.25-1.33a14.66,14.66,0,0,1-3.08-2.47l-.34-1.57a2.21,2.21,0,0,1,2.53-.84l1.9.64,9.52,1.33,0,4L489.27,226l-1,0A4.35,4.35,0,0,1,484.07,222.07Z" fill="#f6b297"/><path d="M558.7,234.06s-18.15,13.73-32,26.45c0,0-25.83-26.72-29.52-33.43l-7.26,6.31c2.4,8.08,7.09,20.23,11.36,27.48a50.39,50.39,0,0,0,8.39,10.67,25.47,25.47,0,0,0,6.69,4.6,16.7,16.7,0,0,0,10,1.38,16.45,16.45,0,0,0,2.59-.68l1.63-.6,3-1.13c2-.73,3.91-1.63,5.84-2.46a114.82,114.82,0,0,0,11.32-5.92,111.68,111.68,0,0,0,10.66-7.25c1.78-1.36,3.38-2.75,5-4.27.82-.74,1.64-1.54,2.44-2.35l1.19-1.27c.43-.48.75-.84,1.36-1.56Z" fill="#ff4500"/><path d="M576.44,223.68c-6.56-1.62-52.9,39.59-52.9,39.59l7,13s42.06-17.54,55-36.45C584.45,230.73,586,226.05,576.44,223.68Z" fill="#ff4500"/><polygon points="581.24 647.41 565.44 647.98 562.74 611.27 581.24 610.6 581.24 647.41" fill="#f6b297"/><path d="M566.61,641.7l14.19,1.48a1.24,1.24,0,0,1,1.15,1.2l2.15,20a2.57,2.57,0,0,1-2.58,2.56l-.3,0c-6.15-.71-9.1-1.35-16.9-2.11-4.78-.46-19.64.35-26-1.54s-4.82-8.31-2-8.1c9.09.75,20-4.52,25.65-11.12C562.77,643.46,565.64,641.57,566.61,641.7Z" fill="#ff4500"/><path d="M565.25,241.81c-9.93,14.68.23,28.24,6.53,74.4l59.14,3.86c.58-24.62,1.92-44.48,15.44-92.15a8.18,8.18,0,0,0-5.6-10.11,8.35,8.35,0,0,0-1.73-.3c-4.89-.3-11-.52-17.32-.27a215.23,215.23,0,0,0-29.56,2.59c-8.34,1.47-10.41,2.43-15.71,3.85C573.34,224.53,569.16,232.57,565.25,241.81Z" fill="#fff"/><path d="M569.4,319.15s-41.08,78.91-33.8,190c-1.21,26.48,26.15,109.66,26.15,109.66l21.37.07s1.24-120.65,4.63-152c5.49-51.29,26.68-145.8,26.68-145.8Z" fill="#2e2e41"/><path d="M743.84,282.15,732,278.24l0,.14-16,5.28-2.84,8.17c2.29,3.88,15.19,2.16,15.19,2.16l9.53,2.5a2.08,2.08,0,0,0,2.32-1.49l4.33-11.52A1.08,1.08,0,0,0,743.84,282.15Z" fill="#f6b297"/><path d="M716,283.65l-2.82,8.18s-20.69,1.54-36.54-.63l-.13,0c-5.55-.56-19.62-3.09-25.57-13.79-8.48-15.24-18.64-34.51-18.8-40.86-.33-13.42,5.56-22,11.46-17.86,12.08,8.44,22.43,38.72,28.31,51L686,274.11Z" fill="#ff4500"/><polygon points="713.25 588.65 701.17 598.89 670.93 577.28 684.24 561.45 713.25 588.65" fill="#f6b297"/><path d="M696.23,593.24l8-11.83a1.24,1.24,0,0,1,1.6-.45l18.64,7.47a2.58,2.58,0,0,1,1,3.49c-.05.08-.1.17-.16.25-3.51,5.1-5.46,7.39-9.79,13.93-2.66,4-8.92,17.5-13.59,22.24s-9.6.36-8.08-2c4.92-7.67,5.38-19.74,2.22-27.87C696,597.46,695.66,594,696.23,593.24Z" fill="#ff4500"/><path d="M629.25,482.4c-17.76-53.28,24.69-122.56,2.37-160.25l-36.92-.61s-35,122.14-10.59,170.52c4.09,31.15,88.75,89.6,88.75,89.6L689.12,565S628.16,494,629.25,482.4Z" fill="#2e2e41"/><path d="M631.33,317.08l1.27,5.86c.2.46-.35.88-1.1.83l-61-3.91c-.58,0-1-.36-1.06-.71l-.21-5.8c0-.39.52-.71,1.15-.65l60,3.83A1.16,1.16,0,0,1,631.33,317.08Z" fill="#2e2e41"/><path d="M619.22,323.53l1.78.12c.33,0,.62-.14.6-.36l-.33-7.53c0-.22-.3-.41-.65-.43l-1.78-.13c-.33,0-.62.14-.6.37l.33,7.52C618.59,323.3,618.89,323.51,619.22,323.53Z" fill="#ff4500"/><path d="M575.15,320.77l1.78.11c.33,0,.62-.14.6-.35L577.2,313c0-.23-.3-.43-.64-.45l-1.77-.11c-.34,0-.62.14-.6.35l.33,7.52C574.52,320.55,574.8,320.75,575.15,320.77Z" fill="#ff4500"/><path d="M595.34,322l1.77.11c.34,0,.62-.14.61-.35l-.33-7.52c0-.23-.3-.43-.64-.44l-1.77-.12c-.34,0-.62.14-.61.36l.33,7.51C594.7,321.77,595,322,595.34,322Z" fill="#ff4500"/><path d="M621,184.86c-2.48,9.51-5.41,26.81.79,32.47,0,0-3.22,9.72-20.89,11.26-19.5,1.7-8.67-8.67-8.67-8.67,10.77-3.51,11-11.13,9.62-18.24Z" fill="#f6b297"/><path d="M621.71,217.24a186.82,186.82,0,0,0-28,2.12l-10,2.31c-2.66,4.6-2.88,15.39,8.09,17.93,0,0,22.46,4.55,34.25-15.19a4.79,4.79,0,0,0-4.35-7.17Z" fill="#f6b297"/><path d="M634.42,186.1a11.57,11.57,0,0,1-7.65,4.32c-4,.44-5.31-3.28-3.72-6.74,1.48-3.09,5.34-7.07,9.12-5.92a5.15,5.15,0,0,1,2.25,8.34Z" fill="#f48c68"/><path d="M630.79,237.27s15,30.39,18.44,63.61c3.14,30.28,1.64,34.14,1.64,34.14s6.08-5.8,4.65-37.29c-.72-15.93-3.15-37.42-10.75-65.28C644.77,232.45,641,233.34,630.79,237.27Z" fill="#ff4500"/><path d="M631.11,238.25l-9.4-21-2.48-4s13.29,1.84,21.53,4.61c0,0-2.48,4-5.6,13.39C634.41,233.43,633.64,238.41,631.11,238.25Z" fill="#ff4500"/><path d="M566.73,238.4s17.23-18.7,34.35-24.65c0,0-11.47.85-26.29,10.1C574.79,223.85,567.83,231.38,566.73,238.4Z" fill="#ff4500"/><path d="M602.39,207.94l0-2.36s4.31.79,12-4.32C614.35,201.26,611.22,207.13,602.39,207.94Z" fill="#f4a48e"/><path d="M610.17,142.77a14.8,14.8,0,0,1-7.1,7.55c-1.89.87-7.65,3.38-9.47,5.37-3,3.31-4.84-11.2,2.94-15S614.06,134.45,610.17,142.77Z" fill="#2e2e41"/><path d="M602.5,202.8a7.61,7.61,0,0,1-11.67-3.69c-3.13.31-5.88-.44-7.89-2.86a9.86,9.86,0,0,1-1.84-8.89c1-3.45,3.82-6,6.6-8.32a51.94,51.94,0,0,0,14.14,22.61Z" fill="#2e2e41"/><path d="M611.53,137.92c3.42-3.15,8.91-3,13.08-1s7.32,5.67,10.34,9.21c5.22,6.11,10.52,12.47,13,20.12s1.55,17-4.39,22.39c-1.74,1.59-3.83,2.78-5.5,4.44s-2.93,4-2.39,6.34,3.57,3.9,5.43,2.45A8.59,8.59,0,0,1,630,203.4a9.13,9.13,0,0,1-9.73,1.91c-3.24-1.36-10.4-5.94-8.87-12.89,3.81-.63,14.29-9.2,15-14.26s-.12-15.17-2.32-19.78c-.58,1.85-3.1,1.64-4.78.66s-2.62-2.82-3.49-4.57a15.32,15.32,0,0,0-3.54-4.51c-4.75-4.32-7.81.87-9.19.36C604.11,145.43,607.85,141.31,611.53,137.92Z" fill="#2e2e41"/><path d="M631.14,175.8c-2.63-.29-4.27,4.12-4.27,4.12,0-.17,0-.33,0-.5-.11.79-.19,1.26-.19,1.26l-.55-1.07c1.84-13.23-2.1-21.23-2.1-21.23-4.94,4.22-9.08-5.75-9.08-5.75-4.44-7.42-9.51-3.43-9.51-3.43a7.11,7.11,0,0,1-2.49,1.21c-2,.52-8.68,4.5-8.68,4.5-2.06,3-2.92-.43-2.92-.44a19.16,19.16,0,0,0-3.47,8.18c-6.26,29.8,8.82,42.12,13.79,42.86s16.08-3.6,23.63-16.11a8.44,8.44,0,0,0,9.64-5.16C636.5,180.69,635.73,176.1,631.14,175.8Z" fill="#f6b297"/></svg>